# Exported from ProBuilder
# http://www.procore3d.com/probuilder
# 2/8/2019 1:32:43 PM

mtllib ./MicroChip001.mtl
o MicroChip001

g MicroChip001
v -0.5 -0.5 0.075
v -0.5 -0.5 -0.05
v -0.5 0.5 0.075
v -0.5 0.5 -0.05
v -0.475 -0.475 -0.075
v 0.475 -0.475 -0.075
v -0.475 0.475 -0.075
v 0.475 0.475 -0.075
v 0.5 -0.5 -0.05
v 0.5 -0.5 0.075
v 0.5 0.5 -0.05
v 0.5 0.5 0.075
v 0.5 0.5 0.075
v -0.5 0.5 0.075
v 0.5 0.5 -0.05
v -0.5 0.5 -0.05
v 0.5 -0.5 -0.05
v -0.5 -0.5 -0.05
v 0.5 -0.5 0.075
v -0.5 -0.5 0.075
v -0.475 -0.475 -0.075
v 0.475 -0.475 -0.075
v -0.5 -0.5 -0.05
v 0.5 -0.5 -0.05
v -0.5 -0.5 -0.05
v -0.5 0.5 -0.05
v -0.475 -0.475 -0.075
v -0.475 0.475 -0.075
v 0.475 -0.475 -0.075
v 0.475 0.475 -0.075
v 0.5 -0.5 -0.05
v 0.5 0.5 -0.05
v 0.475 0.475 -0.075
v -0.475 0.475 -0.075
v 0.5 0.5 -0.05
v -0.5 0.5 -0.05

vn -1 0 0
vn -1 0 0
vn -1 0 0
vn -1 0 0
vn 0 0 -1
vn 0 0 -1
vn 0 0 -1
vn 0 0 -1
vn 1 0 0
vn 1 0 0
vn 1 0 0
vn 1 0 0
vn 0 1 0
vn 0 1 0
vn 0 1 0
vn 0 1 0
vn 0 -1 0
vn 0 -1 0
vn 0 -1 0
vn 0 -1 0
vn 0 -0.7071068 -0.7071068
vn 0 -0.7071068 -0.7071068
vn 0 -0.7071068 -0.7071068
vn 0 -0.7071068 -0.7071068
vn -0.7071072 0 -0.7071064
vn -0.7071072 0 -0.7071064
vn -0.7071072 0 -0.7071064
vn -0.7071072 0 -0.7071064
vn 0.7071068 0 -0.7071068
vn 0.7071068 0 -0.7071068
vn 0.7071068 0 -0.7071068
vn 0.7071068 0 -0.7071068
vn 0 0.7071072 -0.7071064
vn 0 0.7071072 -0.7071064
vn 0 0.7071072 -0.7071064
vn 0 0.7071072 -0.7071064

vt 0.1220955 0
vt -0.002904469 0
vt -0.7 1
vt -0.02730977 1
vt -0.02730977 0.025
vt -0.9796952 0.025
vt -0.02730977 0.975
vt -0.9796952 0.975
vt -0.9796952 0
vt -0.8546952 0
vt -0.9796952 1
vt -0.8546952 1
vt -0.414079 1.238111
vt 1.031233 1.238111
vt -0.414079 1.046314
vt 1.031233 1.046314
vt -0.002904469 0.9999998
vt -0.002904469 0
vt 0.1220956 0.9999998
vt 0.1220955 0
vt 0.475 -0.2828427
vt -0.475 -0.2828427
vt 0.5 -0.3181981
vt -0.5 -0.3181981
vt 0.3181978 -0.5
vt 0.3181978 0.5
vt 0.2828425 -0.475
vt 0.2828425 0.475
vt -0.2828427 -0.475
vt -0.2828427 0.475
vt -0.3181981 -0.5
vt -0.3181981 0.5
vt -0.475 0.2828425
vt 0.475 0.2828425
vt -0.5 0.3181978
vt 0.5 0.3181978

g MicroChip001_0
usemtl Black
f 3/3/3 4/4/4 2/2/2 1/1/1
f 11/11/11 12/12/12 10/10/10 9/9/9
f 15/15/15 16/16/16 14/14/14 13/13/13
f 19/19/19 20/20/20 18/18/18 17/17/17
f 24/24/24 23/23/23 21/21/21 22/22/22
f 28/28/28 27/27/27 25/25/25 26/26/26
f 32/32/32 31/31/31 29/29/29 30/30/30
f 36/36/36 35/35/35 33/33/33 34/34/34

g MicroChip001_1
usemtl MircoChip001
f 7/7/7 8/8/8 6/6/6 5/5/5

